<svg width="23" height="23" viewBox="0 0 23 23" fill="none" xmlns="http://www.w3.org/2000/svg">
    <path d="M9.37826 2.88409C10.2942 1.20465 12.7057 1.20465 13.6216 2.88409L15.0914 5.57912C15.4389 6.21646 16.0545 6.66378 16.7682 6.79741L19.7855 7.36245C21.6658 7.71456 22.411 10.0081 21.0967 11.3981L18.9878 13.6287C18.4891 14.1563 18.2538 14.8801 18.3472 15.6L18.7424 18.6443C18.9885 20.5412 17.0375 21.9587 15.3094 21.1384L12.5362 19.8219C11.8804 19.5106 11.1194 19.5106 10.4636 19.8219L7.69037 21.1384C5.96222 21.9587 4.01129 20.5412 4.25746 18.6443L4.65247 15.6C4.74589 14.8801 4.51071 14.1563 4.01197 13.6287L1.90304 11.3981C0.588835 10.0081 1.33401 7.71456 3.2143 7.36245L6.23161 6.79741C6.94516 6.66378 7.56086 6.21646 7.90843 5.57912L9.37826 2.88409Z" fill="#FB21A1" stroke="#FB21A1" stroke-width="1.5" stroke-linejoin="round"/>
</svg>
