<svg width="115" height="40" viewBox="0 0 115 40" fill="none" xmlns="http://www.w3.org/2000/svg">
    <path d="M58.596 10.44H55.74V18H53.01V10.44H50.14V8.06H58.596V10.44ZM66.6743 15.62V18H59.5903V8.06H66.5483V10.44H62.3203V11.84H65.9323V14.052H62.3203V15.62H66.6743ZM70.2398 8.06H73.2918L76.4558 18H73.6838L73.0818 16.054H70.4358L69.8478 18H67.0618L70.2398 8.06ZM72.6478 14.234L71.7658 10.734L70.8418 14.234H72.6478ZM77.2817 18V8.06H80.0117V15.62H84.5197V18H77.2817ZM59.646 22.06V32H56.916V28.108H53.584V32H50.854V22.06H53.584V25.728H56.916V22.06H59.646ZM65.834 32.084C65.078 32.084 64.392 31.944 63.776 31.664C63.16 31.3747 62.628 30.992 62.18 30.516C61.7413 30.0307 61.4007 29.4893 61.158 28.892C60.9247 28.2853 60.808 27.66 60.808 27.016C60.808 26.3533 60.934 25.7233 61.186 25.126C61.438 24.5287 61.788 23.9967 62.236 23.53C62.6933 23.054 63.23 22.6807 63.846 22.41C64.4713 22.1393 65.1527 22.004 65.89 22.004C66.646 22.004 67.332 22.1487 67.948 22.438C68.564 22.718 69.0913 23.1007 69.53 23.586C69.9687 24.0713 70.3047 24.6173 70.538 25.224C70.7807 25.8213 70.902 26.4373 70.902 27.072C70.902 27.7253 70.776 28.3507 70.524 28.948C70.2813 29.5453 69.9313 30.082 69.474 30.558C69.026 31.0247 68.494 31.398 67.878 31.678C67.262 31.9487 66.5807 32.084 65.834 32.084ZM63.58 27.044C63.58 27.38 63.6267 27.7067 63.72 28.024C63.8133 28.332 63.9533 28.612 64.14 28.864C64.3267 29.1067 64.56 29.3027 64.84 29.452C65.1293 29.592 65.47 29.662 65.862 29.662C66.254 29.662 66.5947 29.5873 66.884 29.438C67.1733 29.2887 67.4067 29.088 67.584 28.836C67.7707 28.5747 67.906 28.29 67.99 27.982C68.0833 27.6647 68.13 27.3427 68.13 27.016C68.13 26.68 68.0833 26.358 67.99 26.05C67.8967 25.742 67.7567 25.4667 67.57 25.224C67.3833 24.972 67.1453 24.776 66.856 24.636C66.5667 24.496 66.2307 24.426 65.848 24.426C65.456 24.426 65.1153 24.5007 64.826 24.65C64.546 24.7993 64.3127 25 64.126 25.252C63.9393 25.4947 63.7993 25.7747 63.706 26.092C63.622 26.4 63.58 26.7173 63.58 27.044ZM72.0591 32V22.06H76.6231C77.1084 22.06 77.5564 22.158 77.9671 22.354C78.3777 22.55 78.7324 22.816 79.0311 23.152C79.3297 23.4787 79.5584 23.8473 79.7171 24.258C79.8851 24.6687 79.9691 25.084 79.9691 25.504C79.9691 25.8867 79.9131 26.2553 79.8011 26.61C79.6891 26.9647 79.5257 27.2913 79.3111 27.59C79.0964 27.8793 78.8397 28.1313 78.5411 28.346L80.6411 32H77.6451L75.8951 28.948H74.7891V32H72.0591ZM74.7891 26.568H76.5111C76.6231 26.568 76.7304 26.526 76.8331 26.442C76.9357 26.358 77.0197 26.2367 77.0851 26.078C77.1597 25.9193 77.1971 25.728 77.1971 25.504C77.1971 25.2707 77.1551 25.0793 77.0711 24.93C76.9964 24.7713 76.8984 24.65 76.7771 24.566C76.6651 24.482 76.5531 24.44 76.4411 24.44H74.7891V26.568ZM81.5063 32V22.06H84.2363V32H81.5063ZM85.4737 29.97L89.9817 24.44H85.6837V22.06H93.2717V24.09L89.0437 29.62H93.3557V32H85.4737V29.97ZM98.9746 32.084C98.2186 32.084 97.5326 31.944 96.9166 31.664C96.3006 31.3747 95.7686 30.992 95.3206 30.516C94.882 30.0307 94.5413 29.4893 94.2986 28.892C94.0653 28.2853 93.9486 27.66 93.9486 27.016C93.9486 26.3533 94.0746 25.7233 94.3266 25.126C94.5786 24.5287 94.9286 23.9967 95.3766 23.53C95.834 23.054 96.3706 22.6807 96.9866 22.41C97.612 22.1393 98.2933 22.004 99.0306 22.004C99.7866 22.004 100.473 22.1487 101.089 22.438C101.705 22.718 102.232 23.1007 102.671 23.586C103.109 24.0713 103.445 24.6173 103.679 25.224C103.921 25.8213 104.043 26.4373 104.043 27.072C104.043 27.7253 103.917 28.3507 103.665 28.948C103.422 29.5453 103.072 30.082 102.615 30.558C102.167 31.0247 101.635 31.398 101.019 31.678C100.403 31.9487 99.7213 32.084 98.9746 32.084ZM96.7206 27.044C96.7206 27.38 96.7673 27.7067 96.8606 28.024C96.954 28.332 97.094 28.612 97.2806 28.864C97.4673 29.1067 97.7006 29.3027 97.9806 29.452C98.27 29.592 98.6106 29.662 99.0026 29.662C99.3946 29.662 99.7353 29.5873 100.025 29.438C100.314 29.2887 100.547 29.088 100.725 28.836C100.911 28.5747 101.047 28.29 101.131 27.982C101.224 27.6647 101.271 27.3427 101.271 27.016C101.271 26.68 101.224 26.358 101.131 26.05C101.037 25.742 100.897 25.4667 100.711 25.224C100.524 24.972 100.286 24.776 99.9966 24.636C99.7073 24.496 99.3713 24.426 98.9886 24.426C98.5966 24.426 98.256 24.5007 97.9666 24.65C97.6866 24.7993 97.4533 25 97.2666 25.252C97.08 25.4947 96.94 25.7747 96.8466 26.092C96.7626 26.4 96.7206 26.7173 96.7206 27.044ZM107.93 27.114V32H105.2V22.06H107.328L111.318 27.114V22.06H114.048V32H111.878L107.93 27.114Z" fill="#3C1C60"/>
    <circle cx="20" cy="20" r="20" transform="matrix(-1 0 0 1 40 0)" fill="url(#paint0_linear_57_20)"/>
    <mask id="mask0_57_20" style="mask-type:alpha" maskUnits="userSpaceOnUse" x="0" y="0" width="40" height="40">
        <circle cx="20" cy="20" r="20" transform="matrix(-1 0 0 1 40 0)" fill="#D9D9D9"/>
    </mask>
    <g mask="url(#mask0_57_20)">
        <path d="M29.7126 30.2395L29.3353 30.5359C29.0299 30.5269 28.2898 30.5359 27.7725 30.6437C27.5569 30.5359 26.5599 29.9431 26.3713 29.8892C26.1826 29.8353 25.2665 29.6737 24.9701 29.485C24.6737 29.2964 24.2964 29.0269 24.1347 29C24.2647 29.1517 24.4296 29.3905 24.5733 29.4922C24.3237 29.373 24.1285 29.2539 24.0808 29.1347C24.0539 29.2695 24.2156 29.512 24.5659 29.6198C24.2695 29.5389 24.1617 29.6198 24 29.485C24.0808 29.6737 24.3503 29.7814 24.4581 29.8084C24.2425 29.7868 24.0629 29.7455 24 29.7275C24.0449 29.8353 24.1832 30.0563 24.3772 30.0778C24.3772 30.2395 24.512 30.3473 24.5928 30.3743C24.7545 30.509 24.9162 30.6437 25.0778 30.6437C25.2072 30.7515 25.4012 30.8683 25.482 30.9132L25.6976 30.994L25.8323 31.0479L25.9671 31.1018L26.0479 31.1557L26.2365 31.2904L26.479 31.4251L26.6946 31.5599L26.8024 31.6407L26.3174 31.8563C26.3892 32.009 26.6138 32.3467 26.9371 32.476C27.018 32.5569 27.5838 32.6916 27.9072 32.6916C28.2305 32.6916 28.9311 32.6647 29.3623 32.3144C29.2545 32.1796 28.9311 31.8563 28.6886 31.7485C28.7156 31.6946 28.7964 31.6946 28.9581 31.7485C29.1198 31.8024 29.9012 31.7216 30.5749 31.6407C31.2485 31.5599 31.7066 31.479 31.8683 31.3713C32.0623 31.2419 32.1467 31.2096 32.1647 31.2096L32.2455 31.1557C32.3982 31.1377 32.7521 31.0695 32.9461 30.9401C32.5581 30.9832 32.0659 30.9222 31.8683 30.8862C32.1377 30.8952 32.7413 30.8377 33 30.5359C32.8922 30.5359 32.7575 30.5898 32.6228 30.5629C32.9246 30.3689 32.982 30.2844 32.9731 30.2665C32.6946 30.3832 32.0084 30.6168 31.491 30.6168C30.8443 30.6168 29.7665 30.509 29.7126 30.482C29.7772 30.3527 29.7395 30.2665 29.7126 30.2395Z" fill="#F5F5F5"/>
        <path d="M27.7831 63.2171C27.9977 63.1694 28.4842 62.9093 28.7132 62.2507C28.9421 61.5921 29.0471 61.1649 29.0709 61.0337L30.1083 61.3916C30.2157 61.4394 30.4875 61.5277 30.7165 61.499C30.9454 61.4704 31.5512 61.1769 31.8254 61.0337C32.2309 60.7115 33.0489 60.0601 33.0775 60.0315C33.1133 59.9957 33.3637 59.9241 33.2564 59.5303C33.3279 59.2798 33.471 58.6713 33.471 58.5281C33.471 58.3849 33.471 57.5974 33.3994 57.4185C33.5783 57.2753 34.1149 56.9531 34.2222 56.2731C34.4369 55.8077 35.1881 54.5907 35.4027 54.4475C35.6174 54.3044 36.154 53.8748 35.9751 53.4453C35.9751 53.2663 36.1897 52.5862 36.3328 52.3357C36.4759 52.0851 36.8694 51.5124 36.8336 51.3334C36.7979 51.1545 36.5832 51.2977 36.5832 50.9755V50.367C36.4163 50.2119 36.0466 49.8802 35.9035 49.7943C35.7247 49.6869 35.4743 49.4364 35.2238 49.329C35.0235 49.2431 34.7588 49.0068 34.6515 48.8994C34.6157 48.8756 34.5084 48.8565 34.3653 48.971C34.1864 49.1142 33.6141 49.4006 33.4352 49.329C33.3994 49.0426 33.3636 48.7563 33.149 48.792C32.9773 48.8207 32.5528 48.8756 32.362 48.8994C32.5766 48.4938 32.9701 47.618 32.8271 47.3603L32.8229 47.3464C32.716 46.9896 32.5707 46.5044 32.1116 46.7518C32.0043 46.7876 31.8254 46.895 31.7181 46.8234C31.6108 46.7518 31.3961 46.6086 31.1815 46.8234C31.1099 46.895 30.8595 46.9665 30.7522 46.8592C30.6449 46.7518 30.1798 46.5728 29.5717 46.5728C29.5431 46.5728 29.4882 46.5489 29.4644 46.537C29.3571 46.3819 29.1281 46.0216 29.0709 45.8211C28.9993 45.5706 28.7489 45.1768 28.5701 45.0336C28.4627 44.9621 28.427 44.7115 28.4627 44.5325C28.4985 44.3536 28.5343 44.1746 28.7489 44.1388C28.9636 44.103 28.9278 43.9598 28.8205 43.7093C28.7132 43.4587 28.6058 43.2797 28.4985 43.1723C28.3912 43.065 28.2481 42.5996 28.1408 42.4923C28.0549 42.4063 27.8188 42.3133 27.7115 42.2775L27.3538 42.0985C27.2465 42.182 27.0032 42.3491 26.8887 42.3491C26.7456 42.3491 26.5668 42.0985 26.4595 42.1343C26.3521 42.1701 26.1375 42.3849 25.9586 42.5281C25.7798 42.6712 25.3863 42.8144 25.2432 42.7428C25.1287 42.6855 24.9808 42.5758 24.9212 42.5281C24.8854 42.4803 24.7924 42.4135 24.7066 42.5281C24.5993 42.6712 24.2773 42.707 24.0984 42.6354C23.9196 42.5638 23.7049 42.3849 23.383 42.6354C23.061 42.886 22.3813 43.4229 22.274 43.5303C22.1882 43.6162 21.9044 43.924 21.7732 44.0672C21.7493 43.7451 21.7016 43.065 21.7016 42.9218V42.0627C21.332 42.4207 20.5426 43.1867 20.3423 43.3871L19.9488 43.7808C20.0322 42.4684 20.1491 39.7719 19.9488 39.4855C20.2349 39.4139 20.3423 39.4139 20.4138 39.4139C20.1992 39.2708 19.8414 39.1276 20.1634 38.6623C20.4854 38.1969 20.4854 38.018 20.4854 37.8748C20.5712 37.8462 20.4019 37.4333 20.3065 37.2305C20.2707 37.0157 19.9845 35.9061 19.9488 35.7271C19.913 35.5482 19.9488 35.2618 20.0203 35.1186C20.0775 35.0041 19.9965 34.7846 19.9488 34.6891C19.913 34.4743 19.8414 34.0162 19.8414 33.9016C19.8414 33.7585 19.8414 32.8994 19.9488 32.7562C20.006 32.6703 20.0203 32.6011 20.0203 32.5772L20.1276 32.7562C20.1515 32.5057 20.1849 31.9687 20.1276 31.8256C20.0561 31.6466 20.0203 31.5034 20.0203 31.3244C20.0203 31.1455 20.1634 30.1432 20.1634 30.0001C20.1634 29.8855 20.2349 29.6421 20.2707 29.5347L20.378 29.7853C20.39 29.4989 20.4281 28.8976 20.4854 28.7831C20.514 29.0121 20.5211 29.1649 20.5211 29.2126C20.5927 28.8904 20.7358 28.1745 20.7358 27.8882C20.8216 28.06 20.9385 27.8405 20.9862 27.7092L21.3081 27.2439C21.4512 26.9695 21.7517 26.4063 21.809 26.349C21.8662 26.2918 22.429 25.5138 22.7033 25.132C22.9895 24.8457 23.6477 24.2658 23.9911 24.2372C24.4204 24.2014 24.5277 24.094 25.422 24.2372C26.3164 24.3804 27.4253 24.4161 27.7473 24.273C28.0048 24.1584 28.3077 24.0105 28.427 23.9508L28.1408 24.6667L27.8188 25.4184L28.6058 23.9508C28.6893 23.8554 28.8706 23.6502 28.9278 23.5929C28.8985 23.7981 28.6531 24.8201 28.172 25.5765C28.0635 25.7265 27.9458 25.8767 27.8188 26.0269C27.9482 25.8975 28.0659 25.7434 28.172 25.5765C28.736 24.7968 29.0524 24.0212 29.1424 23.2707C29.3571 22.9128 28.9993 25.2036 28.6774 25.8479C28.9993 25.4184 29.4644 23.2349 29.4644 22.877C29.4644 23.4187 29.4029 24.0425 29.3265 24.4069C29.3011 24.4903 29.2754 24.5768 29.2498 24.6667C29.2759 24.6145 29.302 24.5241 29.3265 24.4069C29.5841 23.5619 29.8125 23.0436 29.7148 22.5548C30.0725 22.2685 30.2156 22.1253 30.3587 21.8747C30.5018 21.6242 30.8238 20.8009 31.0026 20.6219C31.1815 20.443 31.9685 19.7987 31.575 18.9396C31.203 18.4242 30.3945 17.3647 30.0368 16.8993C29.9891 16.8516 29.9008 16.6846 29.9294 16.3982C29.9652 16.0403 29.9652 15.1096 29.6433 14.6443C29.3213 14.179 28.5701 13.2483 27.8546 12.8546C27.3967 12.5396 26.9245 12.1268 26.7456 11.9597L26.853 11.2439C26.8053 10.7547 26.6025 9.8264 26.1733 10.0268C25.744 10.2273 25.3743 10.8024 25.2432 11.0649C24.8735 10.9575 24.0484 10.8072 23.7049 11.0649C23.5261 9.7047 23.2041 8.48769 21.9878 8.02237C21.6158 7.90782 21.2604 8.11782 21.1293 8.23713C20.9504 8.52348 20.5641 9.18209 20.4496 9.52572C20.1992 9.77628 19.0544 10.8501 18.6967 11.0649C18.339 11.2796 18.0528 11.5302 17.1942 11.4228C17.3731 11.6018 15.6918 11.5302 15.3698 11.566C15.1123 11.5946 15.501 11.7211 15.7275 11.7808H15.3698L15.1552 11.8523H14.7617L14.4039 11.9239L14.547 12.2819H14.2251L14.3324 12.4251H13.76L13.1877 12.6756L13.4381 12.8904H13.1161L12.8657 12.9978L12.4364 13.2841L12.3649 13.3915L12.5437 13.4989L11.9714 13.7136L12.2218 13.8926H11.4348L11.2559 14.2148L11.0771 14.5727L10.5405 14.7875L10.4331 14.8949L10.5405 15.0738H10.4331L10.0754 15.3602L9.96809 15.5034H9.68191L9.61036 15.9329L10.0754 16.255V16.3624H9.68191H9.21686L8.82335 16.613L8.3583 17.0425L8.28676 17.1857H7.9648V17.3289L7.60707 17.5794L7.53552 17.651V18.009L7.21357 18.2237L6.96316 18.3669C6.71275 18.5817 6.17615 19.0112 6.03306 19.0112C6.03306 19.0971 6.12845 19.2379 6.17615 19.2976L5.35337 19.4407L5.56801 19.6555L4.95987 20.0134L4.45905 20.3356H4.67368L3.42163 21.0515C3.09967 21.2304 2.35559 21.6457 1.95493 21.8747C1.55428 22.0752 0.428619 22.698 -0.0841293 22.9844L-0.155674 23.1633L0.0231895 23.2349C-0.215298 23.2469 -0.749508 23.328 -0.978455 23.5571C-1.2074 23.7862 -1.81316 24.273 -2.08742 24.4877L-2.3736 24.8099C-2.71941 25.0366 -3.42533 25.5186 -3.48257 25.6331C-3.5398 25.7477 -3.67336 25.8718 -3.73298 25.9195V26.0269L-4.19803 26.1343C-4.42459 26.2416 -4.84909 26.5065 -4.73462 26.707C-4.90633 26.9361 -5.40239 28.3058 -5.62895 28.962C-5.66472 28.8546 -5.77919 28.6399 -5.9509 28.6399C-6.02245 28.3535 -6.12977 28.3177 -6.12977 28.5325C-6.12977 28.7043 -6.22517 28.5086 -6.27286 28.3893L-6.41595 28.3535H-6.63059L-6.77369 28.2103L-7.0241 28.3535L-7.16719 28.4609L-7.27451 28.5683C-7.40567 28.4967 -7.69663 28.3535 -7.8111 28.3535C-7.91842 28.2103 -7.98997 28.1387 -8.13306 28.1745C-7.8111 27.6734 -8.41924 27.2439 -8.45502 27.2439C-8.41924 27.1007 -6.84523 26.4564 -6.77369 25.7763C-6.41595 25.2752 -5.66472 23.4855 -5.70049 23.3065C-5.44293 23.0202 -5.09235 22.3997 -4.94926 22.1253C-4.98503 21.8509 -5.05658 21.2734 -5.05658 21.1589C-5.05658 21.0157 -4.91349 20.4788 -4.80617 20.3714C-4.72031 20.2855 -5.05658 19.9776 -5.23544 19.8345C-5.23544 19.6555 -5.28553 19.2976 -5.48586 19.2976C-5.73627 19.2976 -6.02245 19.4049 -6.16554 19.4049H-7.45337C-7.73956 18.7248 -7.91842 18.4385 -8.63388 18.4027C-9.34934 18.3669 -9.88594 18.3311 -10.1006 17.9732C-10.3152 17.6152 -11.2453 16.7204 -11.4242 16.613C-11.603 16.5056 -11.8535 16.255 -12.0681 16.2908C-12.3543 16.1477 -12.4974 15.9926 -12.5331 15.9329C-12.6285 15.8016 -12.9266 15.5893 -13.3559 15.7897C-13.8925 16.0403 -14.2502 16.1477 -14.286 16.434C-14.3146 16.6631 -14.3456 16.6488 -14.3576 16.613C-14.5364 16.434 -14.9371 16.2049 -15.1088 16.7204C-15.4308 16.2908 -16.2893 15.5034 -17.3267 16.2908C-17.3267 17.651 -17.6725 47.8375 -17.3267 63.2171H27.7831Z" fill="#F5F5F5"/>
    </g>
    <defs>
        <linearGradient id="paint0_linear_57_20" x1="24.5" y1="-4.5" x2="24.5" y2="40" gradientUnits="userSpaceOnUse">
            <stop offset="0.14" stop-color="#12F1FF"/>
            <stop offset="1" stop-color="#FF12DC"/>
        </linearGradient>
    </defs>
</svg>
