<svg width="44" height="44" viewBox="0 0 44 44" fill="none" xmlns="http://www.w3.org/2000/svg">
    <rect width="44" height="44" rx="9" fill="#EDFDF9"/>
    <path d="M20.2447 14.8696C21.0027 13.4797 22.9984 13.4797 23.7564 14.8696L24.9728 17.1C25.2604 17.6274 25.7699 17.9976 26.3605 18.1082L28.8576 18.5758C30.4137 18.8672 31.0304 20.7653 29.9427 21.9157L28.1974 23.7617C27.7847 24.1983 27.59 24.7973 27.6673 25.3931L27.9943 27.9125C28.198 29.4824 26.5834 30.6555 25.1532 29.9766L22.8582 28.8871C22.3154 28.6295 21.6856 28.6295 21.1429 28.8871L18.8478 29.9766C17.4176 30.6555 15.8031 29.4824 16.0068 27.9125L16.3337 25.3931C16.411 24.7973 16.2164 24.1983 15.8036 23.7617L14.0583 21.9157C12.9707 20.7653 13.5874 18.8672 15.1435 18.5758L17.6406 18.1082C18.2311 17.9976 18.7406 17.6274 19.0283 17.1L20.2447 14.8696Z" stroke="#252432" stroke-width="1.5" stroke-linejoin="round"/>
</svg>
