<svg width="44" height="44" viewBox="0 0 44 44" fill="none" xmlns="http://www.w3.org/2000/svg">
    <rect width="44" height="44" rx="9" fill="#EDFDF9"/>
    <g clip-path="url(#clip0_2014_5)">
        <path d="M22 25V24.4265C22 22.6122 20.402 21.2131 18.6035 21.4529L15.4419 21.8744C14.8382 21.9549 14.2271 21.7953 13.7398 21.4299C13.229 21.0467 12.5 21.4112 12.5 22.0498V25.7555C12.5 26.4428 13.0572 27 13.7445 27C13.9131 27 14.0799 27.0342 14.2348 27.1006L20.1436 29.633C20.7014 29.872 21.3186 29.9363 21.9137 29.8173L29.34 28.332C30.3052 28.139 31 27.2915 31 26.3071C31 25.0764 29.9302 24.1189 28.707 24.2548L22 25ZM22 25L18 24M22.2035 15.2733C22.126 15.4316 22.0672 15.5949 22.0385 15.7582C21.6601 17.9097 24.1773 19.5 25 19.5C25.8226 19.5 28.3401 17.9112 27.9615 15.7582C27.9328 15.5949 27.874 15.4316 27.7965 15.2733C27.3326 14.3257 26.0139 14.306 25.1108 14.9051C25.0442 14.9492 24.9557 14.9492 24.8892 14.9051C23.9861 14.306 22.6673 14.3257 22.2035 15.2733Z" stroke="#363538" stroke-width="1.5" stroke-linecap="round" stroke-linejoin="round"/>
    </g>
    <defs>
        <clipPath id="clip0_2014_5">
            <rect width="24" height="24" fill="white" transform="translate(10 10)"/>
        </clipPath>
    </defs>
</svg>
