<svg width="44" height="44" viewBox="0 0 44 44" fill="none" xmlns="http://www.w3.org/2000/svg">
    <rect width="44" height="44" rx="9" fill="#EDFDF9"/>
    <g clip-path="url(#clip0_2014_7)">
        <g clip-path="url(#clip1_2014_7)">
            <path d="M22 20V23M22 23H19C17.3432 23 16 24.3431 16 26M22 23H25C26.6569 23 28 24.3431 28 26M14 30H18C18.5523 30 19 29.5523 19 29V27C19 26.4477 18.5523 26 18 26H14C13.4477 26 13 26.4477 13 27V29C13 29.5523 13.4477 30 14 30ZM26 30H30C30.5523 30 31 29.5523 31 29V27C31 26.4477 30.5523 26 30 26H26C25.4477 26 25 26.4477 25 27V29C25 29.5523 25.4477 30 26 30ZM20 20H24C24.5523 20 25 19.5523 25 19V17C25 16.4477 24.5523 16 24 16H20C19.4477 16 19 16.4477 19 17V19C19 19.5523 19.4477 20 20 20Z" stroke="#363538" stroke-width="1.5" stroke-linecap="round" stroke-linejoin="round"/>
        </g>
    </g>
    <defs>
        <clipPath id="clip0_2014_7">
            <rect width="24" height="24" fill="white" transform="translate(10 11)"/>
        </clipPath>
        <clipPath id="clip1_2014_7">
            <rect width="24" height="24" fill="white" transform="translate(10 11)"/>
        </clipPath>
    </defs>
</svg>
