<svg width="40" height="40" viewBox="0 0 40 40" fill="none" xmlns="http://www.w3.org/2000/svg">
<circle cx="20" cy="20" r="19.5" fill="#252432" stroke="#252432"/>
<path fill-rule="evenodd" clip-rule="evenodd" d="M17.7865 24.939C18.5254 24.9839 19.2634 25.0016 20 24.9999C20.7365 25.0016 21.4746 24.9839 22.2135 24.939C22.8358 24.9012 23.4261 24.6951 23.9183 24.2937C24.3923 23.9071 24.6897 23.3892 24.8377 22.8092C24.9746 22.2733 24.9819 21.7347 24.9886 21.2481L24.9887 21.2385C24.9943 20.827 24.999 20.4142 25 20.0009V20V19.9991C24.999 19.5858 24.9943 19.173 24.9887 18.7615L24.9886 18.7519C24.9819 18.2653 24.9745 17.7267 24.8377 17.1908C24.6897 16.6107 24.3923 16.0929 23.9183 15.7063C23.4261 15.3049 22.8358 15.0989 22.2135 15.061C21.4746 15.0161 20.7365 14.9984 20 15.0001C19.2634 14.9984 18.5254 15.0161 17.7865 15.061C17.1643 15.0989 16.5739 15.3049 16.0817 15.7063C15.6076 16.0929 15.3102 16.6107 15.1622 17.1908C15.0254 17.7268 15.0181 18.2655 15.0114 18.7521L15.0113 18.7615C15.0057 19.173 15.001 19.5858 15 19.9991V20V20.0009C15.001 20.4142 15.0057 20.827 15.0113 21.2385L15.0114 21.2479C15.0181 21.7345 15.0254 22.2732 15.1622 22.8092C15.3102 23.3892 15.6076 23.9071 16.0817 24.2937C16.5739 24.6951 17.1643 24.9012 17.7865 24.939ZM19.9991 24.2187C19.2758 24.2203 18.5542 24.203 17.834 24.1592C17.3559 24.1301 16.9267 23.9747 16.5755 23.6882C16.2491 23.4221 16.0321 23.0582 15.9192 22.6161C15.8081 22.1807 15.7994 21.7306 15.7925 21.2278C15.7869 20.8176 15.7822 20.4085 15.7813 20C15.7822 19.5915 15.7869 19.1824 15.7925 18.7722C15.7994 18.2694 15.8081 17.8193 15.9192 17.3839C16.0321 16.9417 16.2491 16.5779 16.5755 16.3118C16.9267 16.0254 17.3559 15.8699 17.834 15.8408C18.5542 15.797 19.2758 15.7797 19.9991 15.7814H20H20.0009C20.7241 15.7797 21.4458 15.797 22.166 15.8408C22.6442 15.8699 23.0732 16.0254 23.4245 16.3118C23.7508 16.5779 23.9679 16.9417 24.0807 17.3839C24.1918 17.8193 24.2006 18.2694 24.2075 18.7722C24.2131 19.1824 24.2177 19.5914 24.2188 20C24.2177 20.4086 24.2131 20.8176 24.2075 21.2278C24.2006 21.7306 24.1918 22.1807 24.0807 22.6161C23.9679 23.0582 23.7508 23.4221 23.4245 23.6882C23.0732 23.9747 22.6442 24.1301 22.166 24.1592C21.4458 24.203 20.7241 24.2203 20.0009 24.2187H20H19.9991Z" fill="#F5F8FF"/>
<path fill-rule="evenodd" clip-rule="evenodd" d="M17.5723 20.0001C17.5723 21.3414 18.6596 22.4287 20.0009 22.4287C21.3421 22.4287 22.4294 21.3414 22.4294 20.0001C22.4294 18.6589 21.3421 17.5715 20.0009 17.5715C18.6596 17.5715 17.5723 18.6589 17.5723 20.0001ZM20.0009 21.6515C19.0888 21.6515 18.3494 20.9122 18.3494 20.0001C18.3494 19.088 19.0888 18.3487 20.0009 18.3487C20.9129 18.3487 21.6523 19.088 21.6523 20.0001C21.6523 20.9122 20.9129 21.6515 20.0009 21.6515Z" fill="#F5F8FF"/>
<path d="M23.2854 17.2858C23.2854 17.6014 23.0296 17.8572 22.714 17.8572C22.3984 17.8572 22.1426 17.6014 22.1426 17.2858C22.1426 16.9702 22.3984 16.7144 22.714 16.7144C23.0296 16.7144 23.2854 16.9702 23.2854 17.2858Z" fill="#F5F8FF"/>
</svg>
