<svg width="86" height="86" viewBox="0 0 86 86" fill="none" xmlns="http://www.w3.org/2000/svg">
    <circle cx="43" cy="43" r="43" transform="matrix(-1 0 0 1 86 0)" fill="url(#paint0_linear_78_183)"/>
    <mask id="mask0_78_183" style="mask-type:alpha" maskUnits="userSpaceOnUse" x="0" y="0" width="86" height="86">
        <circle cx="43" cy="43" r="43" transform="matrix(-1 0 0 1 86 0)" fill="#D9D9D9"/>
    </mask>
    <g mask="url(#mask0_78_183)">
        <path d="M63.8813 65.015L63.0702 65.6523C62.4136 65.6329 60.8223 65.6523 59.71 65.884C59.2465 65.6523 57.103 64.3777 56.6974 64.2618C56.2919 64.146 54.3221 63.7984 53.6848 63.3928C53.0476 62.9873 52.2365 62.4079 51.8889 62.35C52.1684 62.6761 52.5228 63.1895 52.8317 63.4083C52.2952 63.1521 51.8755 62.8959 51.773 62.6397C51.7151 62.9293 52.0627 63.4508 52.8158 63.6825C52.1786 63.5087 51.9468 63.6825 51.5992 63.3928C51.773 63.7984 52.3524 64.0301 52.5841 64.088C52.1206 64.0417 51.7344 63.9529 51.5992 63.9142C51.6958 64.146 51.9932 64.621 52.4103 64.6674C52.4103 65.015 52.7 65.2467 52.8738 65.3046C53.2214 65.5943 53.569 65.884 53.9166 65.884C54.1947 66.1157 54.6118 66.3668 54.7856 66.4633L55.2491 66.6371L55.5387 66.753L55.8284 66.8689L56.0022 66.9847L56.4078 67.2744L56.9292 67.5641L57.3926 67.8537L57.6244 68.0276L56.5816 68.491C56.736 68.8193 57.2188 69.5454 57.914 69.8235C58.0878 69.9973 59.3045 70.287 59.9997 70.287C60.6949 70.287 62.2012 70.229 63.1281 69.4759C62.8964 69.1862 62.2012 68.491 61.6798 68.2593C61.7377 68.1434 61.9115 68.1434 62.2591 68.2593C62.6067 68.3752 64.2868 68.2014 65.7351 68.0276C67.1835 67.8537 68.1684 67.6799 68.516 67.4482C68.9331 67.1701 69.1146 67.1006 69.1533 67.1006L69.3271 66.9847C69.6554 66.9461 70.4162 66.7993 70.8334 66.5213C69.9991 66.614 68.9408 66.4826 68.516 66.4054C69.0953 66.4247 70.3931 66.3011 70.9492 65.6523C70.7175 65.6523 70.4278 65.7681 70.1381 65.7102C70.787 65.2931 70.9106 65.1115 70.8913 65.0729C70.2926 65.324 68.8172 65.8261 67.7049 65.8261C66.3145 65.8261 63.9971 65.5943 63.8813 65.5364C64.0203 65.2583 63.9392 65.0729 63.8813 65.015Z" fill="#F5F5F5"/>
        <path d="M59.7336 135.917C60.1951 135.814 61.2411 135.255 61.7334 133.839C62.2256 132.423 62.4512 131.505 62.5025 131.223L64.7329 131.992C64.9637 132.095 65.5482 132.285 66.0404 132.223C66.5327 132.161 67.835 131.53 68.4247 131.223C69.2964 130.53 71.0551 129.129 71.1166 129.068C71.1935 128.991 71.7319 128.837 71.5012 127.99C71.655 127.452 71.9626 126.143 71.9626 125.835C71.9626 125.528 71.9626 123.835 71.8088 123.45C72.1934 123.142 73.3471 122.449 73.5778 120.987C74.0393 119.987 75.6544 117.37 76.1159 117.062C76.5774 116.754 77.731 115.831 77.3465 114.907C77.3465 114.523 77.8079 113.061 78.1156 112.522C78.4232 111.983 79.2693 110.752 79.1923 110.367C79.1154 109.982 78.6539 110.29 78.6539 109.597V108.289C78.295 107.956 77.5002 107.243 77.1926 107.058C76.808 106.827 76.2697 106.288 75.7313 106.057C75.3006 105.873 74.7314 105.365 74.5007 105.134C74.4238 105.083 74.193 105.042 73.8854 105.288C73.5008 105.596 72.2702 106.211 71.8857 106.057C71.8088 105.442 71.7318 104.826 71.2704 104.903C70.9012 104.965 69.9885 105.083 69.5783 105.134C70.0398 104.262 70.8858 102.379 70.5782 101.825L70.5692 101.795C70.3394 101.028 70.0269 99.9846 69.0399 100.516C68.8092 100.593 68.4246 100.824 68.1939 100.67C67.9632 100.516 67.5017 100.209 67.0402 100.67C66.8864 100.824 66.348 100.978 66.1173 100.747C65.8865 100.516 64.8867 100.132 63.5792 100.132C63.5176 100.132 63.3997 100.08 63.3484 100.055C63.1177 99.7212 62.6255 98.9464 62.5024 98.5155C62.3486 97.9768 61.8102 97.1302 61.4256 96.8224C61.1949 96.6685 61.118 96.1298 61.1949 95.745C61.2718 95.3602 61.3487 94.9754 61.8102 94.8985C62.2717 94.8215 62.1948 94.5137 61.964 93.975C61.7333 93.4363 61.5025 93.0515 61.2718 92.8206C61.0411 92.5898 60.7334 91.5893 60.5027 91.3584C60.3181 91.1737 59.8105 90.9736 59.5797 90.8967L58.8106 90.5119C58.5799 90.6915 58.0569 91.0506 57.8108 91.0506C57.5031 91.0506 57.1186 90.5119 56.8878 90.5889C56.6571 90.6658 56.1956 91.1276 55.8111 91.4354C55.4265 91.7432 54.5805 92.051 54.2728 91.8971C54.0267 91.774 53.7088 91.538 53.5806 91.4354C53.5037 91.3328 53.3037 91.1891 53.1191 91.4354C52.8884 91.7432 52.1962 91.8202 51.8116 91.6663C51.4271 91.5123 50.9656 91.1276 50.2734 91.6663C49.5812 92.205 48.1199 93.3593 47.8891 93.5902C47.7045 93.7749 47.0944 94.4367 46.8124 94.7446C46.7611 94.0519 46.6585 92.5898 46.6585 92.2819V90.4349C45.8638 91.2045 44.1666 92.8514 43.7359 93.2824L42.8898 94.1289C43.0693 91.3071 43.3206 85.5096 42.8898 84.894C43.5051 84.7401 43.7359 84.7401 43.8897 84.7401C43.4282 84.4322 42.6591 84.1244 43.3513 83.124C44.0435 82.1235 44.0435 81.7387 44.0435 81.4309C44.2281 81.3693 43.8641 80.4817 43.659 80.0457C43.5821 79.5839 42.9668 77.1982 42.8898 76.8134C42.8129 76.4286 42.8898 75.813 43.0437 75.5051C43.1667 75.2589 42.9924 74.7869 42.8898 74.5817C42.8129 74.1199 42.6591 73.1349 42.6591 72.8886C42.6591 72.5808 42.6591 70.7338 42.8898 70.4259C43.0129 70.2412 43.0437 70.0925 43.0437 70.0412L43.2744 70.4259C43.3257 69.8872 43.3975 68.7329 43.2744 68.425C43.1206 68.0403 43.0437 67.7324 43.0437 67.3476C43.0437 66.9628 43.3513 64.808 43.3513 64.5002C43.3513 64.2539 43.5051 63.7306 43.5821 63.4998L43.8128 64.0385C43.8384 63.4228 43.9205 62.1299 44.0435 61.8836C44.1051 62.3762 44.1204 62.7045 44.1204 62.8071C44.2743 62.1145 44.5819 60.5754 44.5819 59.9597C44.7665 60.3291 45.0177 59.8571 45.1203 59.5749L45.8125 58.5745C46.1201 57.9845 46.7662 56.7737 46.8893 56.6505C47.0123 56.5274 48.2224 54.8548 48.8121 54.034C49.4274 53.4183 50.8425 52.1716 51.5809 52.11C52.5038 52.0331 52.7346 51.8022 54.6574 52.11C56.5802 52.4179 58.9645 52.4948 59.6567 52.187C60.2104 51.9407 60.8616 51.6226 61.118 51.4944L60.5027 53.0335L59.8105 54.6496L61.5025 51.4944C61.682 51.2891 62.0717 50.8479 62.1948 50.7248C62.1318 51.1661 61.6042 53.3633 60.5699 54.9895C60.3366 55.3121 60.0835 55.635 59.8105 55.9579C60.0886 55.6796 60.3416 55.3485 60.5699 54.9895C61.7824 53.3132 62.4627 51.6456 62.6562 50.0322C63.1177 49.2626 62.3486 54.1879 61.6564 55.5731C62.3486 54.6496 63.3484 49.9552 63.3484 49.1856C63.3484 50.3504 63.2163 51.6914 63.052 52.475C62.9974 52.6541 62.9422 52.8401 62.887 53.0335C62.9431 52.9212 62.9992 52.7269 63.052 52.475C63.6059 50.6583 64.0968 49.5437 63.8868 48.493C64.6559 47.8773 64.9636 47.5695 65.2712 47.0308C65.5789 46.4921 66.2711 44.7221 66.6557 44.3373C67.0402 43.9525 68.7323 42.5672 67.8862 40.7203C67.0864 39.6121 65.3481 37.3341 64.579 36.3337C64.4765 36.2311 64.2868 35.8719 64.3483 35.2563C64.4252 34.4867 64.4252 32.4858 63.733 31.4853C63.0408 30.4849 61.4256 28.484 59.8874 27.6375C58.9029 26.9602 57.8877 26.0726 57.5031 25.7135L57.7339 24.1744C57.6313 23.1226 57.1955 21.1268 56.2725 21.5578C55.3496 21.9888 54.5548 23.2252 54.2728 23.7896C53.4781 23.5587 51.704 23.2355 50.9656 23.7896C50.581 20.8652 49.8888 18.2486 47.2738 17.2482C46.4739 17.0019 45.7099 17.4534 45.4279 17.7099C45.0434 18.3256 44.2127 19.7416 43.9666 20.4804C43.4282 21.0191 40.967 23.3278 40.1979 23.7896C39.4288 24.2513 38.8135 24.79 36.9676 24.5591C37.3522 24.9439 33.7373 24.79 33.0451 24.867C32.4913 24.9285 33.3271 25.2004 33.8142 25.3287H33.0451L32.5836 25.4826H31.7376L30.9685 25.6365L31.2761 26.4061H30.5839L30.8147 26.714H29.5841L28.3535 27.2527L28.8919 27.7144H28.1997L27.6613 27.9453L26.7383 28.5609L26.5845 28.7918L26.9691 29.0227L25.7385 29.4844L26.2769 29.8692H24.5848L24.2002 30.5618L23.8157 31.3314L22.662 31.7932L22.4313 32.024L22.662 32.4088H22.4313L21.6621 33.0245L21.4314 33.3323H20.8161L20.6623 34.2558L21.6621 34.9484V35.1793H20.8161H19.8162L18.9702 35.718L17.9704 36.6415L17.8165 36.9493H17.1243V37.2572L16.3552 37.7959L16.2014 37.9498V38.7193L15.5092 39.1811L14.9708 39.4889C14.4324 39.9507 13.2787 40.8742 12.9711 40.8742C12.9711 41.0589 13.1762 41.3616 13.2787 41.4898L11.5098 41.7977L11.9712 42.2594L10.6637 43.029L9.58694 43.7216H10.0484L7.3565 45.2607C6.66429 45.6455 5.06452 46.5382 4.20311 47.0308C3.34169 47.4617 0.921532 48.8008 -0.180878 49.4165L-0.334702 49.8013L0.0498581 49.9552C-0.462891 49.9808 -1.61144 50.1553 -2.10368 50.6478C-2.59592 51.1403 -3.89829 52.1869 -4.48795 52.6487L-5.10324 53.3413C-5.84673 53.8287 -7.36446 54.8651 -7.48752 55.1113C-7.61057 55.3576 -7.89771 55.6244 -8.0259 55.727V55.9579L-9.02576 56.1887C-9.51286 56.4196 -10.4256 56.9891 -10.1794 57.4201C-10.5486 57.9126 -11.6151 60.8575 -12.1022 62.2684C-12.1791 62.0375 -12.4253 61.5758 -12.7944 61.5758C-12.9483 60.9601 -13.179 60.8832 -13.179 61.3449C-13.179 61.7143 -13.3841 61.2936 -13.4867 61.0371L-13.7943 60.9601H-14.2558L-14.5634 60.6523L-15.1018 60.9601L-15.4095 61.191L-15.6402 61.4219C-15.9222 61.2679 -16.5478 60.9601 -16.7939 60.9601C-17.0246 60.6523 -17.1784 60.4984 -17.4861 60.5753C-16.7939 59.4979 -18.1014 58.5744 -18.1783 58.5744C-18.1014 58.2666 -14.7172 56.8814 -14.5634 55.4192C-13.7943 54.3418 -12.1791 50.4939 -12.2561 50.1091C-11.7023 49.4934 -10.9486 48.1595 -10.6409 47.5695C-10.7178 46.9795 -10.8716 45.7379 -10.8716 45.4916C-10.8716 45.1838 -10.564 44.0294 -10.3333 43.7986C-10.1487 43.6139 -10.8716 42.952 -11.2562 42.6442C-11.2562 42.2594 -11.3639 41.4898 -11.7946 41.4898C-12.333 41.4898 -12.9483 41.7207 -13.2559 41.7207H-16.0247C-16.64 40.2585 -17.0246 39.6428 -18.5628 39.5659C-20.1011 39.4889 -21.2548 39.412 -21.7162 38.6424C-22.1777 37.8728 -24.1774 35.9489 -24.562 35.718C-24.9465 35.4871 -25.4849 34.9484 -25.9464 35.0254C-26.5617 34.7175 -26.8693 34.3841 -26.9463 34.2558C-27.1514 33.9736 -27.7923 33.517 -28.7152 33.948C-29.8689 34.4867 -30.638 34.7175 -30.7149 35.3332C-30.7765 35.8257 -30.8431 35.795 -30.8688 35.718C-31.2533 35.3332 -32.1147 34.8407 -32.4839 35.9489C-33.1761 35.0254 -35.022 33.3323 -37.2525 35.0254C-37.2525 37.9498 -37.9959 102.851 -37.2525 135.917H59.7336Z" fill="#F5F5F5"/>
    </g>
    <defs>
        <linearGradient id="paint0_linear_78_183" x1="52.675" y1="-9.675" x2="52.675" y2="86" gradientUnits="userSpaceOnUse">
            <stop offset="0.14" stop-color="#12F1FF"/>
            <stop offset="1" stop-color="#FF12DC"/>
        </linearGradient>
    </defs>
</svg>
