<svg width="26" height="26" viewBox="0 0 26 26" fill="none" xmlns="http://www.w3.org/2000/svg">
<rect width="26" height="26" rx="9" fill="#EDFDF9"/>
<path fill-rule="evenodd" clip-rule="evenodd" d="M10.3438 18.9268C11.2305 18.9807 12.1161 19.0019 13 18.9999C13.8838 19.0019 14.7695 18.9807 15.6562 18.9268C16.4029 18.8814 17.1113 18.6341 17.7019 18.1524C18.2708 17.6885 18.6277 17.0671 18.8053 16.371C18.9695 15.728 18.9783 15.0816 18.9863 14.4977L18.9865 14.4862C18.9932 13.9924 18.9988 13.497 19 13.0011V13V12.9989C18.9988 12.503 18.9932 12.0076 18.9865 11.5138L18.9863 11.5023C18.9783 10.9184 18.9694 10.272 18.8053 9.62894C18.6277 8.93285 18.2708 8.3115 17.7019 7.8476C17.1113 7.36594 16.4029 7.11864 15.6562 7.07324C14.7695 7.01932 13.8838 6.99807 13 7.00014C12.1161 6.99807 11.2305 7.01932 10.3438 7.07324C9.59713 7.11864 8.88872 7.36594 8.29805 7.8476C7.72915 8.3115 7.37226 8.93286 7.19463 9.62893C7.0305 10.2721 7.02167 10.9186 7.0137 11.5025L7.01355 11.5138C7.00679 12.0076 7.00116 12.503 7 12.9989V13V13.0011C7.00116 13.497 7.00679 13.9924 7.01355 14.4862L7.0137 14.4975C7.02167 15.0814 7.0305 15.7279 7.19463 16.3711C7.37226 17.0671 7.72915 17.6885 8.29805 18.1524C8.88872 18.6341 9.59713 18.8814 10.3438 18.9268ZM12.9989 18.0624C12.131 18.0644 11.265 18.0436 10.4008 17.991C9.82704 17.9561 9.31206 17.7696 8.89056 17.4259C8.49895 17.1065 8.23848 16.6699 8.10306 16.1393C7.96974 15.6168 7.95924 15.0767 7.95099 14.4734C7.94426 13.9811 7.93869 13.4902 7.93754 13C7.93869 12.5098 7.94426 12.0189 7.95099 11.5266C7.95924 10.9233 7.96974 10.3832 8.10306 9.86073C8.23848 9.33008 8.49895 8.89348 8.89056 8.57415C9.31205 8.23044 9.82704 8.0439 10.4008 8.00901C11.265 7.95645 12.131 7.93559 12.9989 7.93764H13H13.0011C13.8689 7.93559 14.735 7.95645 15.5992 8.00901C16.173 8.0439 16.6879 8.23043 17.1094 8.57414C17.501 8.89347 17.7615 9.33008 17.8969 9.86072C18.0302 10.3832 18.0407 10.9233 18.049 11.5266C18.0557 12.0189 18.0613 12.5097 18.0625 13C18.0613 13.4903 18.0557 13.9811 18.049 14.4734C18.0407 15.0767 18.0302 15.6168 17.8969 16.1393C17.7615 16.6699 17.501 17.1065 17.1094 17.4259C16.6879 17.7696 16.173 17.9561 15.5992 17.991C14.735 18.0436 13.8689 18.0644 13.0011 18.0624H13H12.9989Z" fill="black"/>
<path fill-rule="evenodd" clip-rule="evenodd" d="M10.0859 13C10.0859 14.6095 11.3907 15.9143 13.0002 15.9143C14.6097 15.9143 15.9145 14.6095 15.9145 13C15.9145 11.3905 14.6097 10.0857 13.0002 10.0857C11.3907 10.0857 10.0859 11.3905 10.0859 13ZM13.0002 14.9817C11.9057 14.9817 11.0185 14.0945 11.0185 13C11.0185 11.9055 11.9057 11.0183 13.0002 11.0183C14.0947 11.0183 14.9819 11.9055 14.9819 13C14.9819 14.0945 14.0947 14.9817 13.0002 14.9817Z" fill="black"/>
<path d="M16.9437 9.74284C16.9437 10.1215 16.6367 10.4286 16.258 10.4286C15.8793 10.4286 15.5723 10.1215 15.5723 9.74284C15.5723 9.36415 15.8793 9.05713 16.258 9.05713C16.6367 9.05713 16.9437 9.36415 16.9437 9.74284Z" fill="black"/>
</svg>
