<svg width="26" height="26" viewBox="0 0 26 26" fill="none" xmlns="http://www.w3.org/2000/svg">
    <rect width="26" height="26" rx="9" fill="#EDFDF9"/>
    <path d="M18.1991 18.1999V14.4641C18.1991 12.6281 17.8039 11.2256 15.6619 11.2256C14.6291 11.2256 13.9406 11.7866 13.6601 12.3221H13.6346V11.3914H11.6074V18.1999H13.7239V14.8211C13.7239 13.9286 13.8896 13.0744 14.9861 13.0744C16.0699 13.0744 16.0826 14.0816 16.0826 14.8721V18.1871H18.1991V18.1999Z" fill="black"/>
    <path d="M8.16602 11.3916H10.2825V18.2001H8.16602V11.3916Z" fill="black"/>
    <path d="M9.224 8C8.54825 8 8 8.54825 8 9.224C8 9.89975 8.54825 10.4607 9.224 10.4607C9.89975 10.4607 10.448 9.89975 10.448 9.224C10.448 8.54825 9.89975 8 9.224 8Z" fill="black"/>
</svg>
