<svg width="26" height="26" viewBox="0 0 26 26" fill="none" xmlns="http://www.w3.org/2000/svg">
<rect width="26" height="26" rx="9" fill="#EDFDF9"/>
<path d="M18.4892 10.3093C18.4299 9.81478 17.9639 9.3406 17.4763 9.27707C14.5031 8.90764 11.4965 8.90764 8.52423 9.27707C8.03624 9.34046 7.57022 9.81478 7.51094 10.3093C7.30104 12.1216 7.30104 13.8788 7.51094 15.6907C7.57022 16.1852 8.03624 16.6598 8.52423 16.7229C11.4965 17.0924 14.5032 17.0924 17.4763 16.7229C17.9639 16.66 18.4299 16.1852 18.4892 15.6907C18.6991 13.879 18.6991 12.1216 18.4892 10.3093ZM12.0589 14.8825V11.118L14.8822 13.0004L12.0589 14.8825Z" fill="black"/>
</svg>
