<svg width="40" height="40" viewBox="0 0 40 40" fill="none" xmlns="http://www.w3.org/2000/svg">
    <circle cx="20" cy="20" r="19.5" fill="#252432" stroke="#252432"/>
    <g clip-path="url(#clip0_85_507)">
        <path d="M15 25.0081L15.7181 22.3406C15.139 21.3014 14.955 20.0888 15.1999 18.9252C15.4448 17.7618 16.1021 16.7253 17.0512 16.0062C18.0004 15.2871 19.1778 14.9335 20.3672 15.0103C21.5566 15.0872 22.6783 15.5892 23.5266 16.4245C24.3748 17.2597 24.8927 18.372 24.9851 19.5573C25.0775 20.7426 24.7382 21.9214 24.0297 22.8774C23.321 23.8333 22.2906 24.5023 21.1273 24.7617C19.9641 25.021 18.7462 24.8532 17.6969 24.289L15 25.0081ZM17.827 23.2908L17.9938 23.3895C18.7538 23.8388 19.6413 24.0247 20.5183 23.9183C21.3952 23.8119 22.2123 23.4191 22.8421 22.8012C23.4718 22.1832 23.879 21.3748 24.0001 20.502C24.1212 19.6292 23.9494 18.7408 23.5115 17.9755C23.0737 17.2102 22.3943 16.6109 21.5792 16.271C20.7642 15.931 19.8593 15.8695 19.0056 16.0961C18.1519 16.3227 17.3973 16.8246 16.8594 17.5236C16.3215 18.2226 16.0305 19.0794 16.0319 19.9607C16.0311 20.6912 16.2337 21.4077 16.617 22.0303L16.7216 22.2023L16.3202 23.6912L17.827 23.2908Z" fill="#F5F8FF"/>
        <path fill-rule="evenodd" clip-rule="evenodd" d="M22.0806 20.7902C21.9829 20.7115 21.8684 20.6561 21.7459 20.6282C21.6234 20.6004 21.4962 20.6008 21.3739 20.6294C21.1901 20.7056 21.0714 20.9932 20.9527 21.137C20.9276 21.1714 20.8909 21.1957 20.8492 21.205C20.8075 21.2143 20.7639 21.2082 20.7265 21.1877C20.0538 20.9249 19.4899 20.4429 19.1264 19.8202C19.0954 19.7812 19.0808 19.7319 19.0855 19.6825C19.0902 19.633 19.114 19.5873 19.1519 19.5551C19.2843 19.4243 19.3815 19.2623 19.4345 19.0842C19.4464 18.8877 19.4012 18.6918 19.3045 18.5202C19.2298 18.2795 19.0875 18.0652 18.8946 17.9027C18.7951 17.858 18.6848 17.843 18.5769 17.8596C18.469 17.8761 18.3683 17.9234 18.2868 17.9957C18.1453 18.1175 18.033 18.2694 17.9581 18.4402C17.8833 18.611 17.8478 18.7963 17.8543 18.9827C17.8547 19.0872 17.868 19.1914 17.8938 19.2928C17.9595 19.5364 18.0604 19.7692 18.1935 19.9837C18.2895 20.148 18.3943 20.3071 18.5073 20.4602C18.8747 20.9632 19.3365 21.3904 19.8671 21.7178C20.1334 21.8842 20.4179 22.0196 20.7152 22.1211C21.0239 22.2607 21.3649 22.3143 21.7018 22.2762C21.8938 22.2472 22.0756 22.1716 22.2314 22.0561C22.3872 21.9405 22.5121 21.7885 22.5951 21.6135C22.6439 21.5078 22.6588 21.3896 22.6375 21.2752C22.5867 21.0411 22.2729 20.9029 22.0806 20.7902Z" fill="#F5F8FF"/>
    </g>
    <defs>
        <clipPath id="clip0_85_507">
            <rect width="20" height="20" fill="white" transform="translate(10 10)"/>
        </clipPath>
    </defs>
</svg>
