<svg width="40" height="40" viewBox="0 0 40 40" fill="none" xmlns="http://www.w3.org/2000/svg">
<circle cx="20" cy="20" r="19.5" fill="#252432" stroke="#252432"/>
<path d="M27.7909 16.6366C27.7121 16.0185 27.0932 15.4258 26.4455 15.3463C22.4964 14.8846 18.5029 14.8846 14.555 15.3463C13.9068 15.4256 13.2878 16.0185 13.2091 16.6366C12.9303 18.902 12.9303 21.0985 13.2091 23.3633C13.2878 23.9815 13.9068 24.5747 14.555 24.6536C18.5029 25.1155 22.4965 25.1155 26.4455 24.6536C27.0932 24.575 27.7121 23.9815 27.7909 23.3633C28.0697 21.0987 28.0697 18.902 27.7909 16.6366ZM19.2499 22.3531V17.6475L22.9999 20.0005L19.2499 22.3531Z" fill="#F5F8FF"/>
</svg>
